{"title":"The Heat 2013 SDTV XViD SAF","uid":8801743,"size":1476901554,"categoryP":"video","categoryS":"movies","magnet":"?xt=urn:btih:900f7c93c1e06fb331eb134554feab320f287061&amp;dn=The+Heat+2013+SDTV+XViD+SAF&amp;tr=udp%3A%2F%2Ftracker.openbittorrent.com%3A80&amp;tr=udp%3A%2F%2Fopen.demonii.com%3A1337&amp;tr=udp%3A%2F%2Ftracker.coppersurfer.tk%3A6969&amp;tr=udp%3A%2F%2Fexodus.desync.com%3A6969","seeders":1,"leechers":0,"uploader":"scenetime55","files":5,"time":1376221824,"description":"\nFormat                                   : AVI\nFormat/Info                              : Audio Video Interleave\nFile size                                : 1.36 GiB\nDuration                                 : 1h 52mn\nOverall bit rate                         : 1 744 Kbps\nWriting application                      : VirtualDubMod 1.5.10.2 (build 2540/release)\nWriting library                          : VirtualDubMod build 2540/release\n\nVideo\nID                                       : 0\nFormat                                   : MPEG-4 Visual\nFormat profile                           : Advanced Simple@L5\nFormat settings, BVOP                    : 2\nFormat settings, QPel                    : No\nFormat settings, GMC                     : No warppoints\nFormat settings, Matrix                  : Default (H.263)\nMuxing mode                              : Packed bitstream\nCodec ID                                 : XVID\nCodec ID/Hint                            : XviD\nDuration                                 : 1h 52mn\nBit rate                                 : 1 604 Kbps\nWidth                                    : 720 pixels\nHeight                                   : 400 pixels\nDisplay aspect ratio                     : 16:9\nFrame rate                               : 30.000 fps\nColor space                              : YUV\nChroma subsampling                       : 4:2:0\nBit depth                                : 8 bits\nScan type                                : Progressive\nCompression mode                         : Lossy\nBits/(Pixel*Frame)                       : 0.186\nStream size                              : 1.26 GiB (92%)\nWriting library                          : XviD 64\n\nAudio\nID                                       : 1\nFormat                                   : MPEG Audio\nFormat version                           : Version 1\nFormat profile                           : Layer 3\nCodec ID                                 : 55\nCodec ID/Hint                            : MP3\nDuration                                 : 1h 52mn\nBit rate mode                            : Constant\nBit rate                                 : 128 Kbps\nChannel(s)                               : 2 channels\nSampling rate                            : 44.1 KHz\nCompression mode                         : Lossy\nStream size                              : 103 MiB (7%)\nAlignment                                : Split accross interleaves\nInterleave, duration                     : 33 ms (1.00 video frame)\nInterleave, preload duration             : 500 ms\nWriting library                          : LAME3.99UUUUUUUUU\u0015Å±Â™\n\n\n &lt;a href=&quot;\nhttp://www.imdb.com/title/tt2404463/&quot; rel=&quot;nofollow&quot; target=&quot;_NEW&quot;&gt;\nhttp://www.imdb.com/title/tt2404463/&lt;/a&gt;\n\n\nStarring: Melissa McCarthy, Sandra Bullock\nDirector: Paul Feig\n\nAction comedy. An FBI agent (Sandra Bullock) is promised consideration for a big promotion if she brings down a drug lord setting up shop in Boston but is forced to team with a loud-mouthed local cop (Melissa McCarthy), both of whom despise one another on first sight.\n\n\n\n\n\n\n\nSource Used      The Heat 2013 V2 SDTV XviD Mp3-KingStoner 720P                 - Thanks\n","torrent":{"xt":"urn:btih:900f7c93c1e06fb331eb134554feab320f287061","amp;dn":"The+Heat+2013+SDTV+XViD+SAF","amp;tr":["udp%3A%2F%2Ftracker.openbittorrent.com%3A80","udp%3A%2F%2Fopen.demonii.com%3A1337","udp%3A%2F%2Ftracker.coppersurfer.tk%3A6969","udp%3A%2F%2Fexodus.desync.com%3A6969"],"infoHash":"900f7c93c1e06fb331eb134554feab320f287061","infoHashBuffer":{"type":"Buffer","data":[144,15,124,147,193,224,111,179,49,235,19,69,84,254,171,50,15,40,112,97]},"announce":[],"urlList":[]}}